<?xml version="1.0" standalone="no"?>
<!DOCTYPE svg PUBLIC "-//W3C//DTD SVG 20010904//EN"
 "http://www.w3.org/TR/2001/REC-SVG-20010904/DTD/svg10.dtd">
<svg version="1.0" xmlns="http://www.w3.org/2000/svg"
 width="410.000000pt" height="410.000000pt" viewBox="0 0 410.000000 410.000000"
 preserveAspectRatio="xMidYMid meet">

<g transform="translate(0.000000,410.000000) scale(0.100000,-0.100000)"
fill="#000000" stroke="none">
<path d="M1685 2890 c-16 -4 -59 -19 -95 -33 -55 -21 -66 -30 -74 -55 -9 -33
-45 -52 -96 -52 -15 0 -46 -14 -68 -30 -35 -25 -42 -36 -42 -64 0 -40 14 -53
107 -100 52 -26 82 -49 107 -82 20 -26 36 -51 36 -57 0 -43 -31 -94 -100 -166
-67 -70 -85 -83 -137 -99 -33 -11 -67 -16 -74 -12 -8 4 -33 11 -55 15 l-42 6
-58 -91 c-33 -50 -78 -121 -101 -157 -35 -54 -44 -77 -49 -131 -9 -86 -35
-132 -75 -132 -19 0 -32 6 -36 17 -4 9 -21 30 -40 46 -18 16 -32 32 -31 35 3
11 -23 54 -56 94 -30 34 -32 42 -35 125 -3 117 -11 120 -11 4 0 -85 -2 -94
-25 -117 -14 -14 -37 -44 -51 -65 -37 -59 -94 -119 -113 -119 -9 0 -32 -13
-51 -28 l-33 -29 20 -20 c12 -12 24 -39 28 -61 3 -23 17 -50 31 -63 13 -12 24
-29 24 -36 0 -8 11 -25 24 -38 81 -81 94 -134 54 -206 -28 -49 -79 -69 -89
-34 -12 41 -35 66 -71 77 -35 10 -38 14 -38 50 0 21 -4 38 -10 38 -5 0 -10
-17 -10 -38 0 -35 -4 -40 -38 -55 -22 -9 -44 -28 -50 -42 -16 -35 -14 -96 3
-119 22 -29 18 -53 -11 -72 -20 -14 -24 -22 -19 -43 4 -14 16 -36 27 -48 23
-25 23 -24 -7 -41 -15 -8 461 -11 1828 -12 1016 0 1847 4 1847 8 0 5 -9 17
-21 28 -12 10 -39 45 -61 76 -69 98 -195 178 -281 178 -38 0 -152 51 -160 73
-3 8 -1 19 4 24 7 7 1 21 -16 41 -15 18 -24 36 -20 42 4 6 8 23 11 38 3 15 7
34 11 42 3 8 8 26 10 40 2 13 8 29 12 35 5 5 9 57 10 115 1 57 7 110 12 116
17 20 13 119 -6 147 -16 25 -15 26 6 38 13 6 34 22 48 35 14 13 29 24 34 24
21 0 146 112 161 144 9 20 29 44 44 53 55 35 95 76 118 121 21 41 22 51 12 89
-6 24 -14 46 -19 49 -5 3 -9 13 -9 23 0 29 -79 140 -111 157 -38 19 -110 11
-149 -16 -37 -26 -80 -78 -80 -95 0 -15 -34 -38 -43 -29 -8 8 -41 -12 -145
-88 -52 -37 -100 -68 -106 -68 -6 0 -40 29 -75 65 -68 69 -117 92 -172 80 -20
-5 -46 1 -85 19 -31 14 -63 26 -71 26 -8 0 -24 5 -36 12 -12 6 -54 12 -93 13
-78 3 -114 16 -114 44 0 26 -18 31 -71 20 -24 -5 -73 -14 -108 -19 -40 -7 -97
-27 -148 -52 -67 -34 -86 -40 -93 -29 -13 23 -1 39 35 45 18 4 38 13 45 21 7
8 21 15 31 15 21 0 26 7 33 43 7 42 -53 94 -143 122 -28 9 -54 31 -69 61 -6
11 -50 42 -99 68 -81 43 -95 47 -168 50 -44 2 -93 0 -110 -4z m-336 -247 c0
-25 -1 -25 -8 -8 -5 11 -7 23 -4 28 8 14 13 7 12 -20z m-999 -1471 c0 -42 -4
-51 -31 -71 -36 -27 -43 -23 -43 26 0 27 7 42 32 64 18 16 34 29 37 29 3 0 5
-22 5 -48z m74 19 c26 -22 36 -54 27 -86 l-7 -28 -28 27 c-16 14 -33 26 -37
26 -10 0 -12 73 -3 83 8 7 20 1 48 -22z m61 -131 c7 -23 -2 -43 -16 -35 -12 8
-12 55 0 55 5 0 12 -9 16 -20z m73 -48 c2 -15 -2 -22 -12 -22 -11 0 -16 9 -16
26 0 31 23 28 28 -4z"/>
</g>
</svg>
