<?xml version="1.0" encoding="UTF-8"?>
<svg xmlns="http://www.w3.org/2000/svg" xmlns:xlink="http://www.w3.org/1999/xlink" width="32px" height="32px" viewBox="0 0 32 32" version="1.1">
<g id="surface1">
<path style=" stroke:none;fill-rule:nonzero;fill:rgb(69.411765%,36.470588%,14.117647%);fill-opacity:1;" d="M 13.488281 9.402344 L 13.550781 9.402344 C 13.59375 9.402344 13.632812 9.402344 13.675781 9.402344 C 13.738281 9.402344 13.800781 9.402344 13.867188 9.402344 C 14.660156 9.398438 15.453125 9.707031 16.042969 10.25 C 16.089844 10.300781 16.128906 10.355469 16.164062 10.410156 C 16.3125 10.625 16.46875 10.726562 16.710938 10.816406 C 17.007812 10.921875 17.277344 11.050781 17.515625 11.261719 L 17.554688 11.289062 C 17.664062 11.386719 17.742188 11.519531 17.769531 11.664062 C 17.773438 11.800781 17.738281 11.949219 17.667969 12.066406 C 17.613281 12.101562 17.558594 12.109375 17.496094 12.117188 C 17.398438 12.132812 17.347656 12.160156 17.277344 12.222656 C 17.140625 12.328125 16.976562 12.378906 16.816406 12.425781 C 16.734375 12.449219 16.675781 12.472656 16.617188 12.535156 C 16.609375 12.617188 16.617188 12.667969 16.65625 12.738281 C 16.863281 12.738281 17.042969 12.632812 17.222656 12.542969 C 17.828125 12.246094 18.425781 12.085938 19.089844 11.976562 C 19.164062 11.964844 19.238281 11.949219 19.3125 11.9375 L 19.355469 11.929688 C 19.382812 11.925781 19.410156 11.917969 19.433594 11.914062 C 19.570312 11.890625 19.703125 11.875 19.832031 11.917969 C 19.898438 11.96875 19.910156 12.011719 19.921875 12.085938 C 19.9375 12.179688 19.9375 12.179688 19.992188 12.257812 C 20.261719 12.410156 20.554688 12.414062 20.859375 12.433594 C 21.132812 12.449219 21.402344 12.46875 21.65625 12.585938 C 21.71875 12.609375 21.777344 12.625 21.84375 12.636719 C 22.023438 12.675781 22.1875 12.753906 22.355469 12.824219 C 22.675781 12.964844 22.675781 12.964844 23.019531 12.972656 C 23.359375 12.921875 23.65625 13.015625 23.933594 13.214844 C 24.164062 13.386719 24.367188 13.59375 24.570312 13.796875 C 24.75 14 24.75 14 24.992188 14.089844 C 25.039062 14.066406 25.085938 14.042969 25.128906 14.011719 L 25.167969 13.984375 C 25.207031 13.957031 25.25 13.929688 25.292969 13.902344 L 25.335938 13.871094 C 25.511719 13.753906 25.6875 13.632812 25.859375 13.507812 C 26.109375 13.324219 26.359375 13.144531 26.621094 12.984375 L 26.671875 12.953125 C 26.757812 12.90625 26.816406 12.886719 26.914062 12.890625 C 27.011719 12.894531 27.0625 12.875 27.136719 12.8125 C 27.179688 12.765625 27.199219 12.714844 27.222656 12.652344 C 27.359375 12.3125 27.699219 11.980469 28.03125 11.832031 C 28.324219 11.714844 28.683594 11.667969 28.988281 11.777344 C 29.140625 11.851562 29.253906 11.972656 29.359375 12.101562 L 29.402344 12.15625 C 29.625 12.4375 29.851562 12.742188 29.925781 13.101562 C 29.941406 13.15625 29.960938 13.191406 29.992188 13.238281 C 30.128906 13.449219 30.1875 13.75 30.164062 13.996094 C 30.027344 14.5 29.628906 14.898438 29.210938 15.1875 C 29.027344 15.316406 28.902344 15.445312 28.785156 15.636719 C 28.699219 15.78125 28.59375 15.898438 28.476562 16.019531 L 28.449219 16.046875 C 28.339844 16.164062 28.226562 16.273438 28.101562 16.375 C 28.085938 16.390625 28.066406 16.40625 28.046875 16.421875 C 27.878906 16.570312 27.707031 16.710938 27.503906 16.800781 C 27.398438 16.851562 27.316406 16.921875 27.230469 17 C 27.085938 17.128906 26.921875 17.230469 26.753906 17.332031 C 26.761719 17.40625 26.777344 17.457031 26.816406 17.519531 C 26.933594 17.71875 26.945312 17.945312 26.945312 18.167969 C 26.945312 18.207031 26.945312 18.242188 26.949219 18.28125 C 26.949219 18.445312 26.925781 18.578125 26.863281 18.730469 C 26.84375 18.785156 26.835938 18.84375 26.828125 18.902344 L 26.820312 18.96875 C 26.796875 19.15625 26.789062 19.339844 26.78125 19.523438 L 26.78125 19.582031 C 26.777344 19.660156 26.773438 19.738281 26.773438 19.816406 C 26.75 20.382812 26.75 20.382812 26.648438 20.632812 C 26.597656 20.769531 26.570312 20.910156 26.539062 21.050781 C 26.515625 21.160156 26.484375 21.269531 26.453125 21.378906 C 26.441406 21.425781 26.425781 21.476562 26.414062 21.527344 L 26.394531 21.59375 L 26.378906 21.65625 C 26.375 21.675781 26.371094 21.695312 26.363281 21.714844 C 26.359375 21.789062 26.378906 21.820312 26.417969 21.878906 L 26.453125 21.9375 C 26.496094 22.003906 26.542969 22.066406 26.59375 22.125 C 26.636719 22.183594 26.664062 22.234375 26.65625 22.304688 C 26.640625 22.351562 26.640625 22.351562 26.621094 22.386719 C 26.59375 22.453125 26.597656 22.488281 26.621094 22.558594 C 26.835938 22.769531 27.171875 22.882812 27.449219 22.988281 L 27.503906 23.011719 C 27.640625 23.058594 27.773438 23.074219 27.914062 23.089844 C 28.097656 23.109375 28.265625 23.144531 28.441406 23.214844 L 28.476562 23.226562 C 29.191406 23.507812 29.734375 24.046875 30.179688 24.65625 C 30.296875 24.8125 30.421875 24.964844 30.558594 25.105469 C 30.671875 25.230469 30.671875 25.230469 30.6875 25.3125 C 30.527344 25.332031 30.367188 25.335938 30.203125 25.335938 L 30.113281 25.335938 C 30.035156 25.335938 29.953125 25.339844 29.875 25.339844 L 29.71875 25.339844 C 28.945312 25.351562 28.171875 25.355469 27.398438 25.359375 L 27.230469 25.359375 C 25.351562 25.371094 23.46875 25.371094 21.589844 25.371094 C 21.253906 25.371094 20.914062 25.371094 20.574219 25.371094 L 20.5 25.371094 C 20.121094 25.371094 19.746094 25.371094 19.367188 25.371094 L 19.328125 25.371094 C 18.929688 25.371094 18.53125 25.371094 18.128906 25.371094 L 17.46875 25.371094 C 16.433594 25.371094 15.402344 25.371094 14.367188 25.371094 L 14.328125 25.371094 C 13.929688 25.371094 13.53125 25.371094 13.132812 25.371094 L 11.851562 25.371094 C 11.511719 25.371094 11.175781 25.371094 10.839844 25.371094 C 9.058594 25.371094 7.277344 25.371094 5.496094 25.359375 L 5.351562 25.359375 C 4.691406 25.355469 4.027344 25.347656 3.367188 25.339844 C 3.320312 25.339844 3.277344 25.339844 3.234375 25.339844 C 2.945312 25.335938 2.65625 25.332031 2.367188 25.320312 L 2.296875 25.320312 C 2.191406 25.316406 2.089844 25.3125 1.984375 25.292969 C 2.011719 25.210938 2.058594 25.203125 2.136719 25.160156 C 2.125 25.078125 2.09375 25.035156 2.039062 24.972656 C 1.902344 24.8125 1.808594 24.640625 1.8125 24.425781 C 1.820312 24.351562 1.839844 24.328125 1.890625 24.28125 C 1.933594 24.246094 1.976562 24.214844 2.019531 24.179688 C 2.097656 24.121094 2.128906 24.078125 2.152344 23.984375 C 2.164062 23.867188 2.117188 23.78125 2.050781 23.6875 C 1.910156 23.46875 1.925781 23.167969 1.972656 22.921875 C 2.019531 22.734375 2.085938 22.613281 2.25 22.5 C 2.324219 22.457031 2.402344 22.417969 2.480469 22.378906 C 2.589844 22.324219 2.589844 22.324219 2.679688 22.238281 C 2.695312 22.1875 2.703125 22.148438 2.707031 22.09375 L 2.710938 22.042969 C 2.714844 22.007812 2.71875 21.96875 2.71875 21.933594 C 2.734375 21.773438 2.734375 21.773438 2.773438 21.695312 L 2.847656 21.695312 C 2.882812 21.753906 2.890625 21.800781 2.894531 21.867188 L 2.898438 21.925781 C 2.902344 21.964844 2.902344 22.003906 2.90625 22.042969 C 2.910156 22.125 2.914062 22.1875 2.953125 22.257812 C 3.015625 22.308594 3.082031 22.332031 3.160156 22.359375 C 3.429688 22.457031 3.578125 22.578125 3.703125 22.839844 C 3.730469 22.902344 3.757812 22.964844 3.785156 23.03125 C 3.808594 23.074219 3.832031 23.082031 3.878906 23.101562 C 4.023438 23.101562 4.125 23.039062 4.234375 22.949219 C 4.441406 22.746094 4.570312 22.449219 4.582031 22.160156 C 4.570312 21.769531 4.328125 21.480469 4.074219 21.207031 C 3.847656 20.964844 3.847656 20.964844 3.804688 20.824219 C 3.761719 20.695312 3.679688 20.601562 3.585938 20.5 C 3.457031 20.363281 3.410156 20.199219 3.367188 20.019531 C 3.304688 19.777344 3.207031 19.597656 3.015625 19.429688 C 3.105469 19.214844 3.410156 19.046875 3.617188 18.960938 L 3.683594 18.945312 C 4.050781 18.824219 4.332031 18.339844 4.535156 18.039062 C 4.640625 17.878906 4.753906 17.726562 4.886719 17.585938 C 5.085938 17.367188 5.117188 17.1875 5.125 16.894531 C 5.125 16.867188 5.128906 16.839844 5.128906 16.816406 C 5.128906 16.75 5.132812 16.683594 5.132812 16.613281 C 5.136719 16.507812 5.140625 16.398438 5.140625 16.292969 C 5.144531 16.253906 5.144531 16.214844 5.144531 16.179688 L 5.148438 16.109375 L 5.148438 16.050781 C 5.152344 16 5.152344 16 5.171875 15.945312 L 5.207031 15.945312 C 5.230469 16.167969 5.25 16.386719 5.253906 16.613281 C 5.269531 17.152344 5.269531 17.152344 5.527344 17.609375 C 5.632812 17.738281 5.726562 17.871094 5.816406 18.011719 L 5.839844 18.046875 C 5.898438 18.144531 5.945312 18.238281 5.976562 18.34375 C 6.027344 18.480469 6.160156 18.582031 6.269531 18.679688 C 6.355469 18.753906 6.421875 18.835938 6.488281 18.933594 C 6.527344 18.988281 6.5625 19.03125 6.613281 19.074219 L 6.667969 19.074219 C 6.710938 18.945312 6.714844 18.824219 6.71875 18.691406 C 6.71875 18.652344 6.71875 18.613281 6.71875 18.574219 C 6.722656 18.476562 6.726562 18.382812 6.726562 18.285156 C 6.730469 18.203125 6.730469 18.121094 6.734375 18.039062 C 6.734375 18 6.734375 17.964844 6.734375 17.925781 L 6.738281 17.855469 L 6.738281 17.792969 C 6.746094 17.742188 6.746094 17.742188 6.78125 17.6875 C 6.84375 17.746094 6.824219 17.917969 6.828125 18 L 6.832031 18.097656 L 6.835938 18.148438 C 6.847656 18.457031 6.867188 18.765625 6.894531 19.074219 L 6.949219 19.042969 C 7.007812 19.015625 7.007812 19.015625 7.042969 19.015625 L 7.058594 18.984375 C 7.082031 18.941406 7.109375 18.902344 7.132812 18.863281 C 7.285156 18.609375 7.316406 18.308594 7.359375 18.019531 C 7.421875 17.5625 7.621094 17.21875 7.871094 16.839844 C 7.933594 16.742188 7.996094 16.648438 8.054688 16.550781 C 8.144531 16.410156 8.238281 16.269531 8.328125 16.132812 C 8.546875 15.796875 8.761719 15.457031 8.972656 15.121094 C 9.191406 15.144531 9.40625 15.175781 9.617188 15.234375 L 9.6875 15.25 L 9.726562 15.261719 C 9.835938 15.289062 9.917969 15.285156 10.027344 15.261719 L 10.078125 15.25 C 10.355469 15.1875 10.675781 15.101562 10.886719 14.894531 C 10.886719 14.867188 10.890625 14.835938 10.890625 14.808594 L 10.894531 14.75 L 10.894531 14.691406 L 10.898438 14.628906 C 10.898438 14.5625 10.902344 14.496094 10.902344 14.429688 C 10.90625 14.363281 10.910156 14.296875 10.910156 14.230469 C 10.914062 14.191406 10.914062 14.148438 10.914062 14.109375 L 10.917969 14.050781 L 10.917969 14.003906 C 10.921875 13.960938 10.929688 13.921875 10.941406 13.882812 L 10.980469 13.882812 C 11.003906 14.171875 11.03125 14.457031 11.054688 14.746094 C 11.113281 14.6875 11.171875 14.628906 11.230469 14.570312 C 11.25 14.550781 11.269531 14.527344 11.289062 14.507812 C 11.402344 14.398438 11.515625 14.285156 11.617188 14.164062 L 11.644531 14.128906 C 11.855469 13.882812 12.070312 13.605469 12.140625 13.285156 L 12.148438 13.246094 C 12.171875 13.035156 11.992188 12.84375 11.867188 12.6875 C 11.625 12.398438 11.34375 12.226562 11.015625 12.054688 C 10.980469 12.035156 10.945312 12.015625 10.910156 12 C 10.867188 11.972656 10.820312 11.949219 10.773438 11.925781 C 10.320312 11.6875 10.320312 11.6875 10.230469 11.460938 C 10.1875 11.308594 10.1875 11.136719 10.265625 10.996094 C 10.441406 10.765625 10.726562 10.617188 10.996094 10.527344 C 11.023438 10.527344 11.046875 10.523438 11.074219 10.523438 C 11.316406 10.5 11.539062 10.476562 11.71875 10.292969 C 11.773438 10.226562 11.804688 10.152344 11.835938 10.074219 C 11.929688 9.863281 12.128906 9.789062 12.332031 9.707031 L 12.394531 9.683594 C 12.558594 9.621094 12.726562 9.5625 12.890625 9.507812 L 12.929688 9.496094 C 12.964844 9.484375 13 9.472656 13.03125 9.460938 L 13.09375 9.441406 C 13.226562 9.402344 13.355469 9.402344 13.488281 9.402344 Z M 10.472656 11.183594 C 10.429688 11.21875 10.429688 11.21875 10.433594 11.261719 L 10.441406 11.308594 L 10.445312 11.351562 C 10.453125 11.390625 10.453125 11.390625 10.472656 11.429688 L 10.511719 11.429688 C 10.527344 11.339844 10.53125 11.273438 10.511719 11.183594 Z M 2.5625 22.578125 L 2.496094 22.636719 L 2.464844 22.664062 C 2.441406 22.683594 2.417969 22.703125 2.394531 22.722656 C 2.261719 22.832031 2.1875 22.949219 2.160156 23.121094 C 2.148438 23.242188 2.136719 23.398438 2.203125 23.5 L 2.230469 23.53125 C 2.335938 23.507812 2.402344 23.472656 2.484375 23.402344 L 2.515625 23.378906 C 2.621094 23.296875 2.699219 23.21875 2.714844 23.082031 C 2.722656 22.996094 2.722656 22.910156 2.71875 22.828125 L 2.71875 22.757812 C 2.71875 22.617188 2.71875 22.617188 2.699219 22.484375 C 2.652344 22.484375 2.597656 22.546875 2.5625 22.578125 Z M 2.960938 22.519531 C 2.878906 22.601562 2.902344 22.71875 2.902344 22.824219 L 2.898438 22.878906 C 2.898438 22.976562 2.902344 23.066406 2.941406 23.15625 C 2.992188 23.203125 2.992188 23.203125 3.050781 23.238281 C 3.167969 23.308594 3.265625 23.394531 3.363281 23.488281 C 3.410156 23.535156 3.410156 23.535156 3.464844 23.570312 C 3.546875 23.277344 3.5625 23.082031 3.410156 22.8125 C 3.324219 22.699219 3.167969 22.570312 3.035156 22.519531 Z M 3.632812 23.585938 C 3.585938 23.683594 3.582031 23.785156 3.605469 23.890625 C 3.621094 23.929688 3.621094 23.929688 3.652344 23.980469 C 3.703125 24 3.703125 24 3.746094 24 C 3.804688 23.914062 3.796875 23.835938 3.785156 23.738281 C 3.761719 23.679688 3.734375 23.632812 3.691406 23.585938 Z M 4.214844 23.90625 C 4.164062 23.949219 4.152344 23.976562 4.144531 24.042969 C 4.136719 24.113281 4.140625 24.164062 4.179688 24.226562 C 4.210938 24.265625 4.210938 24.265625 4.261719 24.265625 C 4.3125 24.265625 4.3125 24.265625 4.347656 24.226562 C 4.359375 24.109375 4.34375 24.019531 4.273438 23.925781 Z M 4.214844 23.90625 "/>
<path style=" stroke:none;fill-rule:nonzero;fill:rgb(2.352941%,0.784314%,0%);fill-opacity:1;" d="M 13.488281 9.402344 L 13.550781 9.402344 C 13.59375 9.402344 13.632812 9.402344 13.675781 9.402344 C 13.738281 9.402344 13.800781 9.402344 13.867188 9.402344 C 14.660156 9.398438 15.453125 9.707031 16.042969 10.25 C 16.089844 10.300781 16.128906 10.355469 16.164062 10.410156 C 16.3125 10.625 16.46875 10.726562 16.710938 10.816406 C 17.007812 10.921875 17.277344 11.050781 17.515625 11.261719 L 17.554688 11.289062 C 17.664062 11.386719 17.742188 11.519531 17.769531 11.664062 C 17.773438 11.800781 17.738281 11.949219 17.667969 12.066406 C 17.613281 12.101562 17.558594 12.109375 17.496094 12.117188 C 17.398438 12.132812 17.347656 12.160156 17.277344 12.222656 C 17.140625 12.328125 16.976562 12.378906 16.816406 12.425781 C 16.734375 12.449219 16.675781 12.472656 16.617188 12.535156 C 16.609375 12.617188 16.617188 12.667969 16.65625 12.738281 C 16.863281 12.738281 17.042969 12.632812 17.222656 12.542969 C 17.828125 12.246094 18.425781 12.085938 19.089844 11.976562 C 19.164062 11.964844 19.238281 11.949219 19.3125 11.9375 L 19.355469 11.929688 C 19.382812 11.925781 19.410156 11.917969 19.433594 11.914062 C 19.570312 11.890625 19.703125 11.875 19.832031 11.917969 C 19.898438 11.96875 19.910156 12.011719 19.921875 12.085938 C 19.9375 12.179688 19.9375 12.179688 19.992188 12.257812 C 20.261719 12.410156 20.554688 12.414062 20.859375 12.433594 C 21.132812 12.449219 21.402344 12.46875 21.65625 12.585938 C 21.71875 12.609375 21.777344 12.625 21.84375 12.636719 C 22.023438 12.675781 22.1875 12.753906 22.355469 12.824219 C 22.675781 12.964844 22.675781 12.964844 23.019531 12.972656 C 23.359375 12.921875 23.65625 13.015625 23.933594 13.214844 C 24.164062 13.386719 24.367188 13.59375 24.570312 13.796875 C 24.75 14 24.75 14 24.992188 14.089844 C 25.039062 14.066406 25.085938 14.042969 25.128906 14.011719 L 25.167969 13.984375 C 25.207031 13.957031 25.25 13.929688 25.292969 13.902344 L 25.335938 13.871094 C 25.511719 13.753906 25.6875 13.632812 25.859375 13.507812 C 26.109375 13.324219 26.359375 13.144531 26.621094 12.984375 L 26.671875 12.953125 C 26.757812 12.90625 26.816406 12.886719 26.914062 12.890625 C 27.011719 12.894531 27.0625 12.875 27.136719 12.8125 C 27.179688 12.765625 27.199219 12.714844 27.222656 12.652344 C 27.359375 12.3125 27.699219 11.980469 28.03125 11.832031 C 28.324219 11.714844 28.683594 11.667969 28.988281 11.777344 C 29.140625 11.851562 29.253906 11.972656 29.359375 12.101562 L 29.402344 12.15625 C 29.625 12.4375 29.851562 12.742188 29.925781 13.101562 C 29.941406 13.15625 29.960938 13.191406 29.992188 13.238281 C 30.128906 13.449219 30.1875 13.75 30.164062 13.996094 C 30.027344 14.5 29.628906 14.898438 29.210938 15.1875 C 29.027344 15.316406 28.902344 15.445312 28.785156 15.636719 C 28.699219 15.78125 28.59375 15.898438 28.476562 16.019531 L 28.449219 16.046875 C 28.339844 16.164062 28.226562 16.273438 28.101562 16.375 C 28.085938 16.390625 28.066406 16.40625 28.046875 16.421875 C 27.878906 16.570312 27.707031 16.710938 27.503906 16.800781 C 27.398438 16.851562 27.316406 16.921875 27.230469 17 C 27.085938 17.128906 26.921875 17.230469 26.753906 17.332031 C 26.761719 17.40625 26.777344 17.457031 26.816406 17.519531 C 26.933594 17.71875 26.945312 17.945312 26.945312 18.167969 C 26.945312 18.207031 26.945312 18.242188 26.949219 18.28125 C 26.949219 18.445312 26.925781 18.578125 26.863281 18.730469 C 26.84375 18.785156 26.835938 18.84375 26.828125 18.902344 L 26.820312 18.96875 C 26.796875 19.15625 26.789062 19.339844 26.78125 19.523438 L 26.78125 19.582031 C 26.777344 19.660156 26.773438 19.738281 26.773438 19.816406 C 26.75 20.382812 26.75 20.382812 26.648438 20.632812 C 26.597656 20.769531 26.570312 20.910156 26.539062 21.050781 C 26.515625 21.160156 26.484375 21.269531 26.453125 21.378906 C 26.441406 21.425781 26.425781 21.476562 26.414062 21.527344 L 26.394531 21.59375 L 26.378906 21.65625 C 26.375 21.675781 26.371094 21.695312 26.363281 21.714844 C 26.359375 21.789062 26.378906 21.820312 26.417969 21.878906 L 26.453125 21.9375 C 26.496094 22.003906 26.542969 22.066406 26.59375 22.125 C 26.636719 22.183594 26.664062 22.234375 26.65625 22.304688 C 26.640625 22.351562 26.640625 22.351562 26.621094 22.386719 C 26.59375 22.453125 26.597656 22.488281 26.621094 22.558594 C 26.835938 22.769531 27.171875 22.882812 27.449219 22.988281 L 27.503906 23.011719 C 27.640625 23.058594 27.773438 23.074219 27.914062 23.089844 C 28.097656 23.109375 28.265625 23.144531 28.441406 23.214844 L 28.476562 23.226562 C 29.191406 23.507812 29.734375 24.046875 30.179688 24.65625 C 30.296875 24.8125 30.421875 24.964844 30.558594 25.105469 C 30.671875 25.230469 30.671875 25.230469 30.6875 25.3125 C 30.527344 25.332031 30.367188 25.335938 30.203125 25.335938 L 30.113281 25.335938 C 30.035156 25.335938 29.953125 25.339844 29.875 25.339844 L 29.71875 25.339844 C 28.945312 25.351562 28.171875 25.355469 27.398438 25.359375 L 27.230469 25.359375 C 25.351562 25.371094 23.46875 25.371094 21.589844 25.371094 C 21.253906 25.371094 20.914062 25.371094 20.574219 25.371094 L 20.5 25.371094 C 20.121094 25.371094 19.746094 25.371094 19.367188 25.371094 L 19.328125 25.371094 C 18.929688 25.371094 18.53125 25.371094 18.128906 25.371094 L 17.46875 25.371094 C 16.433594 25.371094 15.402344 25.371094 14.367188 25.371094 L 14.328125 25.371094 C 13.929688 25.371094 13.53125 25.371094 13.132812 25.371094 L 11.851562 25.371094 C 11.511719 25.371094 11.175781 25.371094 10.839844 25.371094 C 9.058594 25.371094 7.277344 25.371094 5.496094 25.359375 L 5.351562 25.359375 C 4.691406 25.355469 4.027344 25.347656 3.367188 25.339844 C 3.320312 25.339844 3.277344 25.339844 3.234375 25.339844 C 2.945312 25.335938 2.65625 25.332031 2.367188 25.320312 L 2.296875 25.320312 C 2.191406 25.316406 2.089844 25.3125 1.984375 25.292969 C 2.011719 25.210938 2.058594 25.203125 2.136719 25.160156 C 2.125 25.078125 2.09375 25.035156 2.039062 24.972656 C 1.902344 24.8125 1.808594 24.640625 1.8125 24.425781 C 1.820312 24.351562 1.839844 24.328125 1.890625 24.28125 C 1.933594 24.246094 1.976562 24.214844 2.019531 24.179688 C 2.097656 24.121094 2.128906 24.078125 2.152344 23.984375 C 2.164062 23.867188 2.117188 23.78125 2.050781 23.6875 C 1.910156 23.46875 1.925781 23.167969 1.972656 22.921875 C 2.019531 22.734375 2.085938 22.613281 2.25 22.5 C 2.324219 22.457031 2.402344 22.417969 2.480469 22.378906 C 2.589844 22.324219 2.589844 22.324219 2.679688 22.238281 C 2.695312 22.1875 2.703125 22.148438 2.707031 22.09375 L 2.710938 22.042969 C 2.714844 22.007812 2.71875 21.96875 2.71875 21.933594 C 2.734375 21.773438 2.734375 21.773438 2.773438 21.695312 L 2.847656 21.695312 C 2.882812 21.753906 2.890625 21.800781 2.894531 21.867188 L 2.898438 21.925781 C 2.902344 21.964844 2.902344 22.003906 2.90625 22.042969 C 2.910156 22.125 2.914062 22.1875 2.953125 22.257812 C 3.015625 22.308594 3.082031 22.332031 3.160156 22.359375 C 3.429688 22.457031 3.578125 22.578125 3.703125 22.839844 C 3.730469 22.902344 3.757812 22.964844 3.785156 23.03125 C 3.808594 23.074219 3.832031 23.082031 3.878906 23.101562 C 4.023438 23.101562 4.125 23.039062 4.234375 22.949219 C 4.441406 22.746094 4.570312 22.449219 4.582031 22.160156 C 4.570312 21.769531 4.328125 21.480469 4.074219 21.207031 C 3.847656 20.964844 3.847656 20.964844 3.804688 20.824219 C 3.761719 20.695312 3.679688 20.601562 3.585938 20.5 C 3.457031 20.363281 3.410156 20.199219 3.367188 20.019531 C 3.304688 19.777344 3.207031 19.597656 3.015625 19.429688 C 3.105469 19.214844 3.410156 19.046875 3.617188 18.960938 L 3.683594 18.945312 C 4.050781 18.824219 4.332031 18.339844 4.535156 18.039062 C 4.640625 17.878906 4.753906 17.726562 4.886719 17.585938 C 5.085938 17.367188 5.117188 17.1875 5.125 16.894531 C 5.125 16.867188 5.128906 16.839844 5.128906 16.816406 C 5.128906 16.75 5.132812 16.683594 5.132812 16.613281 C 5.136719 16.507812 5.140625 16.398438 5.140625 16.292969 C 5.144531 16.253906 5.144531 16.214844 5.144531 16.179688 L 5.148438 16.109375 L 5.148438 16.050781 C 5.152344 16 5.152344 16 5.171875 15.945312 L 5.207031 15.945312 C 5.230469 16.167969 5.25 16.386719 5.253906 16.613281 C 5.269531 17.152344 5.269531 17.152344 5.527344 17.609375 C 5.632812 17.738281 5.726562 17.871094 5.816406 18.011719 L 5.839844 18.046875 C 5.898438 18.144531 5.945312 18.238281 5.976562 18.34375 C 6.027344 18.480469 6.160156 18.582031 6.269531 18.679688 C 6.355469 18.753906 6.421875 18.835938 6.488281 18.933594 C 6.527344 18.988281 6.5625 19.03125 6.613281 19.074219 L 6.667969 19.074219 C 6.710938 18.945312 6.714844 18.824219 6.71875 18.691406 C 6.71875 18.652344 6.71875 18.613281 6.71875 18.574219 C 6.722656 18.476562 6.726562 18.382812 6.726562 18.285156 C 6.730469 18.203125 6.730469 18.121094 6.734375 18.039062 C 6.734375 18 6.734375 17.964844 6.734375 17.925781 L 6.738281 17.855469 L 6.738281 17.792969 C 6.746094 17.742188 6.746094 17.742188 6.78125 17.6875 C 6.84375 17.746094 6.824219 17.917969 6.828125 18 L 6.832031 18.097656 L 6.835938 18.148438 C 6.847656 18.457031 6.867188 18.765625 6.894531 19.074219 L 6.949219 19.042969 C 7.007812 19.015625 7.007812 19.015625 7.042969 19.015625 L 7.058594 18.984375 C 7.082031 18.941406 7.109375 18.902344 7.132812 18.863281 C 7.285156 18.609375 7.316406 18.308594 7.359375 18.019531 C 7.421875 17.5625 7.621094 17.21875 7.871094 16.839844 C 7.933594 16.742188 7.996094 16.648438 8.054688 16.550781 C 8.144531 16.410156 8.238281 16.269531 8.328125 16.132812 C 8.546875 15.796875 8.761719 15.457031 8.972656 15.121094 C 9.191406 15.144531 9.40625 15.175781 9.617188 15.234375 L 9.6875 15.25 L 9.726562 15.261719 C 9.835938 15.289062 9.917969 15.285156 10.027344 15.261719 L 10.078125 15.25 C 10.355469 15.1875 10.675781 15.101562 10.886719 14.894531 C 10.886719 14.867188 10.890625 14.835938 10.890625 14.808594 L 10.894531 14.75 L 10.894531 14.691406 L 10.898438 14.628906 C 10.898438 14.5625 10.902344 14.496094 10.902344 14.429688 C 10.90625 14.363281 10.910156 14.296875 10.910156 14.230469 C 10.914062 14.191406 10.914062 14.148438 10.914062 14.109375 L 10.917969 14.050781 L 10.917969 14.003906 C 10.921875 13.960938 10.929688 13.921875 10.941406 13.882812 L 10.980469 13.882812 C 11.003906 14.171875 11.03125 14.457031 11.054688 14.746094 C 11.113281 14.6875 11.171875 14.628906 11.230469 14.570312 C 11.25 14.550781 11.269531 14.527344 11.289062 14.507812 C 11.402344 14.398438 11.515625 14.285156 11.617188 14.164062 L 11.644531 14.128906 C 11.855469 13.882812 12.070312 13.605469 12.140625 13.285156 L 12.148438 13.246094 C 12.171875 13.035156 11.992188 12.84375 11.867188 12.6875 C 11.625 12.398438 11.34375 12.226562 11.015625 12.054688 C 10.980469 12.035156 10.945312 12.015625 10.910156 12 C 10.867188 11.972656 10.820312 11.949219 10.773438 11.925781 C 10.320312 11.6875 10.320312 11.6875 10.230469 11.460938 C 10.1875 11.308594 10.1875 11.136719 10.265625 10.996094 C 10.441406 10.765625 10.726562 10.617188 10.996094 10.527344 C 11.023438 10.527344 11.046875 10.523438 11.074219 10.523438 C 11.316406 10.5 11.539062 10.476562 11.71875 10.292969 C 11.773438 10.226562 11.804688 10.152344 11.835938 10.074219 C 11.929688 9.863281 12.128906 9.789062 12.332031 9.707031 L 12.394531 9.683594 C 12.558594 9.621094 12.726562 9.5625 12.890625 9.507812 L 12.929688 9.496094 C 12.964844 9.484375 13 9.472656 13.03125 9.460938 L 13.09375 9.441406 C 13.226562 9.402344 13.355469 9.402344 13.488281 9.402344 Z M 12.839844 9.734375 C 12.804688 9.75 12.765625 9.761719 12.730469 9.777344 C 12.597656 9.824219 12.46875 9.871094 12.339844 9.929688 C 12.304688 9.941406 12.269531 9.957031 12.230469 9.96875 C 12.179688 9.984375 12.144531 10.003906 12.101562 10.042969 L 12.101562 10.078125 L 12.066406 10.078125 L 12.066406 10.117188 L 12.007812 10.136719 C 11.992188 10.171875 11.992188 10.171875 11.980469 10.214844 L 11.964844 10.261719 C 11.953125 10.300781 11.945312 10.339844 11.933594 10.378906 L 11.898438 10.378906 C 11.867188 10.40625 11.867188 10.40625 11.839844 10.441406 L 11.808594 10.476562 C 11.78125 10.507812 11.78125 10.507812 11.785156 10.546875 L 11.738281 10.5625 C 11.6875 10.578125 11.640625 10.597656 11.59375 10.621094 C 11.464844 10.683594 11.328125 10.695312 11.1875 10.703125 C 10.96875 10.722656 10.785156 10.792969 10.621094 10.941406 L 10.621094 10.980469 L 10.585938 10.980469 L 10.585938 11.015625 L 10.660156 11.035156 C 10.679688 11.097656 10.679688 11.152344 10.683594 11.214844 L 10.683594 11.273438 L 10.679688 11.335938 L 10.683594 11.398438 L 10.683594 11.457031 L 10.679688 11.511719 C 10.679688 11.558594 10.679688 11.558594 10.660156 11.617188 C 10.839844 11.734375 11.03125 11.832031 11.222656 11.929688 C 11.632812 12.136719 11.941406 12.398438 12.191406 12.777344 C 12.210938 12.808594 12.234375 12.839844 12.253906 12.871094 C 12.351562 13.019531 12.347656 13.183594 12.328125 13.359375 C 12.300781 13.492188 12.242188 13.613281 12.175781 13.734375 C 12.15625 13.769531 12.15625 13.769531 12.160156 13.808594 L 12.101562 13.828125 L 12.101562 13.902344 L 12.046875 13.921875 C 12.011719 13.960938 12.011719 13.960938 11.980469 14.011719 C 11.820312 14.234375 11.636719 14.433594 11.449219 14.632812 L 11.402344 14.675781 C 11.238281 14.851562 11.074219 15.011719 10.875 15.144531 L 10.828125 15.175781 L 10.828125 15.214844 C 10.8125 15.21875 10.796875 15.222656 10.785156 15.226562 C 10.734375 15.246094 10.6875 15.261719 10.636719 15.28125 C 10.269531 15.421875 9.910156 15.539062 9.523438 15.417969 C 9.417969 15.382812 9.324219 15.367188 9.21875 15.363281 L 9.21875 15.324219 L 9.144531 15.320312 L 9.105469 15.320312 L 9.066406 15.324219 C 9.023438 15.382812 9.023438 15.382812 9.03125 15.457031 L 8.972656 15.476562 C 8.921875 15.542969 8.898438 15.574219 8.898438 15.664062 L 8.84375 15.679688 C 8.789062 15.75 8.769531 15.78125 8.769531 15.867188 L 8.710938 15.886719 C 8.679688 15.925781 8.679688 15.925781 8.652344 15.96875 L 8.621094 16.011719 C 8.59375 16.058594 8.59375 16.058594 8.597656 16.132812 L 8.542969 16.148438 C 8.507812 16.191406 8.476562 16.238281 8.445312 16.285156 L 8.417969 16.324219 L 8.394531 16.363281 L 8.371094 16.398438 C 8.351562 16.4375 8.351562 16.4375 8.355469 16.503906 L 8.300781 16.523438 C 8.246094 16.59375 8.226562 16.621094 8.226562 16.710938 L 8.167969 16.730469 C 8.136719 16.765625 8.136719 16.765625 8.109375 16.8125 L 8.078125 16.855469 C 8.050781 16.902344 8.050781 16.902344 8.054688 16.972656 L 8 16.992188 C 7.945312 17.0625 7.925781 17.089844 7.925781 17.179688 L 7.867188 17.199219 C 7.816406 17.269531 7.792969 17.296875 7.792969 17.386719 L 7.738281 17.40625 C 7.714844 17.449219 7.699219 17.492188 7.683594 17.535156 C 7.671875 17.570312 7.65625 17.605469 7.644531 17.640625 C 7.589844 17.789062 7.566406 17.933594 7.546875 18.085938 C 7.46875 18.6875 7.46875 18.6875 7.324219 18.945312 C 7.304688 18.976562 7.304688 18.976562 7.308594 19.015625 L 7.25 19.035156 C 7.21875 19.0625 7.21875 19.0625 7.191406 19.097656 L 7.160156 19.132812 C 7.132812 19.164062 7.132812 19.164062 7.136719 19.203125 L 7.085938 19.21875 C 7.027344 19.238281 7.027344 19.238281 6.984375 19.261719 C 6.839844 19.308594 6.628906 19.304688 6.488281 19.242188 C 6.40625 19.195312 6.363281 19.128906 6.3125 19.050781 C 6.230469 18.925781 6.125 18.816406 6.011719 18.722656 C 5.875 18.609375 5.804688 18.496094 5.753906 18.324219 C 5.667969 18.089844 5.472656 17.878906 5.3125 17.6875 C 5.285156 17.648438 5.273438 17.621094 5.265625 17.574219 L 5.226562 17.574219 L 5.207031 17.515625 C 4.996094 17.71875 4.816406 17.960938 4.652344 18.203125 C 4.5 18.433594 4.332031 18.648438 4.140625 18.847656 L 4.101562 18.886719 C 4.054688 18.941406 4.003906 18.984375 3.945312 19.023438 L 3.898438 19.054688 L 3.898438 19.089844 C 3.808594 19.125 3.726562 19.136719 3.632812 19.148438 L 3.617188 19.203125 L 3.574219 19.207031 C 3.511719 19.226562 3.472656 19.253906 3.421875 19.292969 L 3.371094 19.332031 C 3.328125 19.371094 3.328125 19.371094 3.335938 19.449219 C 3.359375 19.496094 3.386719 19.539062 3.414062 19.585938 C 3.492188 19.726562 3.539062 19.867188 3.578125 20.023438 C 3.609375 20.152344 3.648438 20.28125 3.753906 20.371094 C 3.863281 20.472656 3.9375 20.601562 3.988281 20.742188 C 4.03125 20.855469 4.113281 20.933594 4.195312 21.019531 C 4.496094 21.335938 4.773438 21.699219 4.765625 22.152344 L 4.765625 22.207031 C 4.761719 22.421875 4.699219 22.589844 4.609375 22.78125 C 4.585938 22.816406 4.585938 22.816406 4.589844 22.855469 L 4.535156 22.875 C 4.507812 22.90625 4.484375 22.941406 4.464844 22.972656 C 4.402344 23.0625 4.34375 23.117188 4.253906 23.175781 L 4.253906 23.214844 L 4.140625 23.25 L 4.089844 23.273438 C 3.976562 23.300781 3.84375 23.304688 3.726562 23.269531 L 3.710938 23.402344 L 3.777344 23.425781 C 3.863281 23.46875 3.898438 23.523438 3.9375 23.609375 C 3.964844 23.699219 3.96875 23.792969 3.972656 23.886719 C 4.015625 23.835938 4.015625 23.835938 4.027344 23.773438 C 4.144531 23.726562 4.25 23.722656 4.371094 23.753906 C 4.453125 23.820312 4.488281 23.894531 4.515625 24 C 4.527344 24.113281 4.519531 24.226562 4.515625 24.335938 L 4.476562 24.335938 L 4.460938 24.414062 C 4.335938 24.449219 4.191406 24.453125 4.074219 24.402344 C 3.980469 24.304688 3.964844 24.1875 3.953125 24.054688 L 3.910156 24.101562 C 3.839844 24.167969 3.808594 24.171875 3.714844 24.171875 L 3.652344 24.175781 C 3.589844 24.167969 3.554688 24.152344 3.503906 24.113281 C 3.449219 24.027344 3.425781 23.933594 3.425781 23.835938 C 3.417969 23.773438 3.417969 23.773438 3.378906 23.730469 C 3.355469 23.714844 3.328125 23.699219 3.300781 23.6875 C 3.257812 23.660156 3.226562 23.632812 3.191406 23.59375 C 3.089844 23.488281 2.96875 23.410156 2.847656 23.324219 L 2.828125 23.363281 L 2.773438 23.382812 C 2.75 23.402344 2.730469 23.425781 2.710938 23.445312 C 2.660156 23.496094 2.601562 23.535156 2.542969 23.578125 L 2.511719 23.605469 L 2.511719 23.644531 C 2.5 23.648438 2.488281 23.652344 2.472656 23.65625 L 2.425781 23.667969 L 2.378906 23.683594 L 2.34375 23.699219 C 2.320312 23.761719 2.328125 23.773438 2.34375 23.832031 C 2.351562 23.960938 2.34375 24.082031 2.304688 24.207031 L 2.265625 24.207031 C 2.242188 24.230469 2.242188 24.230469 2.21875 24.265625 C 2.15625 24.339844 2.085938 24.394531 2.003906 24.449219 C 2.027344 24.617188 2.101562 24.722656 2.210938 24.851562 L 2.246094 24.890625 L 2.277344 24.929688 C 2.316406 24.992188 2.324219 25.054688 2.34375 25.125 C 2.675781 25.140625 3.007812 25.148438 3.34375 25.152344 C 3.386719 25.152344 3.433594 25.152344 3.476562 25.152344 C 4.144531 25.164062 4.808594 25.167969 5.476562 25.171875 C 5.523438 25.171875 5.574219 25.171875 5.621094 25.171875 C 7.398438 25.183594 9.175781 25.183594 10.953125 25.183594 C 11.289062 25.183594 11.625 25.183594 11.960938 25.183594 L 12.035156 25.183594 C 12.410156 25.183594 12.785156 25.183594 13.160156 25.183594 L 13.195312 25.183594 C 13.59375 25.183594 13.988281 25.183594 14.386719 25.183594 L 15.042969 25.183594 C 16.066406 25.183594 17.089844 25.183594 18.113281 25.183594 L 18.152344 25.183594 C 18.546875 25.183594 18.945312 25.183594 19.339844 25.183594 L 19.378906 25.183594 C 19.789062 25.183594 20.199219 25.183594 20.613281 25.183594 C 20.945312 25.183594 21.28125 25.183594 21.613281 25.183594 C 23.480469 25.183594 25.351562 25.183594 27.21875 25.171875 L 27.386719 25.171875 C 28.351562 25.167969 29.3125 25.15625 30.277344 25.144531 C 30.234375 25.078125 30.191406 25.015625 30.140625 24.953125 L 30.109375 24.910156 L 30.074219 24.867188 C 30.003906 24.773438 29.929688 24.683594 29.863281 24.585938 C 29.675781 24.328125 29.457031 24.105469 29.207031 23.90625 L 29.152344 23.863281 C 28.777344 23.5625 28.335938 23.316406 27.847656 23.277344 C 27.539062 23.253906 27.265625 23.144531 26.984375 23.015625 L 26.929688 22.992188 C 26.492188 22.785156 26.492188 22.785156 26.425781 22.617188 C 26.402344 22.519531 26.402344 22.402344 26.429688 22.304688 C 26.4375 22.234375 26.402344 22.203125 26.359375 22.152344 C 26.238281 22 26.15625 21.875 26.164062 21.679688 C 26.175781 21.597656 26.199219 21.523438 26.226562 21.445312 C 26.25 21.367188 26.269531 21.292969 26.285156 21.21875 C 26.3125 21.101562 26.34375 20.988281 26.378906 20.878906 C 26.40625 20.792969 26.425781 20.707031 26.445312 20.621094 C 26.460938 20.5625 26.476562 20.511719 26.5 20.457031 C 26.601562 20.230469 26.578125 19.933594 26.585938 19.691406 C 26.59375 19.464844 26.601562 19.234375 26.621094 19.007812 L 26.625 18.957031 C 26.636719 18.824219 26.65625 18.695312 26.707031 18.570312 C 26.8125 18.335938 26.777344 17.964844 26.699219 17.722656 C 26.675781 17.679688 26.652344 17.640625 26.628906 17.597656 C 26.5625 17.484375 26.539062 17.386719 26.566406 17.253906 C 26.605469 17.164062 26.667969 17.128906 26.75 17.085938 C 26.855469 17.023438 26.949219 16.957031 27.042969 16.878906 C 27.167969 16.765625 27.285156 16.675781 27.4375 16.609375 C 27.660156 16.5 27.84375 16.320312 28.019531 16.152344 C 28.058594 16.117188 28.097656 16.085938 28.136719 16.050781 C 28.332031 15.882812 28.503906 15.703125 28.640625 15.480469 C 28.757812 15.289062 28.882812 15.144531 29.078125 15.023438 C 29.460938 14.777344 29.863281 14.378906 29.976562 13.921875 C 29.984375 13.851562 29.972656 13.796875 29.957031 13.734375 L 29.949219 13.695312 C 29.910156 13.542969 29.867188 13.410156 29.777344 13.273438 C 29.746094 13.214844 29.734375 13.160156 29.71875 13.09375 C 29.65625 12.832031 29.488281 12.609375 29.320312 12.402344 L 29.28125 12.351562 C 29.054688 12.054688 29.054688 12.054688 28.722656 11.914062 C 28.550781 11.898438 28.398438 11.929688 28.234375 11.972656 L 28.175781 11.984375 C 27.996094 12.03125 27.878906 12.148438 27.746094 12.273438 L 27.707031 12.308594 C 27.535156 12.46875 27.40625 12.636719 27.371094 12.871094 L 27.335938 12.871094 C 27.308594 12.902344 27.285156 12.933594 27.261719 12.964844 L 27.203125 13.003906 L 27.203125 13.039062 C 27.117188 13.074219 27.035156 13.085938 26.945312 13.089844 L 26.90625 13.089844 C 26.875 13.09375 26.839844 13.09375 26.808594 13.097656 L 26.808594 13.132812 L 26.714844 13.152344 L 26.714844 13.191406 L 26.679688 13.191406 C 26.601562 13.214844 26.546875 13.253906 26.484375 13.300781 L 26.445312 13.328125 C 26.402344 13.359375 26.363281 13.386719 26.324219 13.414062 L 26.257812 13.460938 C 26.164062 13.527344 26.074219 13.589844 25.984375 13.65625 C 25.957031 13.675781 25.929688 13.695312 25.902344 13.714844 L 25.863281 13.746094 C 25.777344 13.808594 25.691406 13.867188 25.601562 13.925781 L 25.539062 13.96875 C 25.5 13.996094 25.457031 14.019531 25.417969 14.046875 L 25.359375 14.085938 L 25.308594 14.117188 L 25.273438 14.144531 L 25.273438 14.183594 L 25.144531 14.21875 L 25.144531 14.257812 C 25.015625 14.292969 24.875 14.300781 24.753906 14.238281 C 24.546875 14.097656 24.375 13.902344 24.203125 13.730469 C 24.125 13.652344 24.046875 13.578125 23.960938 13.507812 L 23.910156 13.464844 C 23.6875 13.285156 23.449219 13.136719 23.15625 13.152344 L 23.105469 13.160156 C 22.742188 13.21875 22.449219 13.089844 22.125 12.949219 C 21.976562 12.882812 21.824219 12.832031 21.664062 12.792969 C 21.585938 12.777344 21.511719 12.753906 21.4375 12.71875 C 21.203125 12.625 20.941406 12.632812 20.691406 12.617188 C 20.015625 12.574219 20.015625 12.574219 19.804688 12.367188 C 19.742188 12.28125 19.730469 12.1875 19.726562 12.085938 C 19.648438 12.066406 19.585938 12.066406 19.503906 12.085938 L 19.503906 12.121094 L 19.472656 12.125 C 18.675781 12.179688 17.933594 12.414062 17.222656 12.769531 C 16.878906 12.9375 16.878906 12.9375 16.703125 12.933594 L 16.636719 12.933594 C 16.582031 12.925781 16.550781 12.921875 16.503906 12.890625 C 16.414062 12.757812 16.40625 12.613281 16.429688 12.460938 C 16.503906 12.320312 16.621094 12.269531 16.765625 12.222656 C 16.804688 12.210938 16.84375 12.199219 16.882812 12.191406 C 17.003906 12.15625 17.09375 12.105469 17.191406 12.023438 C 17.292969 11.945312 17.394531 11.925781 17.515625 11.914062 C 17.574219 11.765625 17.574219 11.765625 17.550781 11.613281 C 17.339844 11.285156 16.964844 11.121094 16.613281 10.992188 C 16.367188 10.902344 16.164062 10.792969 16.019531 10.570312 C 15.730469 10.117188 14.976562 9.75 14.464844 9.628906 C 14.242188 9.59375 14.023438 9.585938 13.800781 9.585938 C 13.75 9.585938 13.695312 9.585938 13.644531 9.585938 C 13.359375 9.585938 13.109375 9.636719 12.839844 9.734375 Z M 10.472656 11.183594 C 10.429688 11.21875 10.429688 11.21875 10.433594 11.261719 L 10.441406 11.308594 L 10.445312 11.351562 C 10.453125 11.390625 10.453125 11.390625 10.472656 11.429688 L 10.511719 11.429688 C 10.527344 11.339844 10.53125 11.273438 10.511719 11.183594 Z M 2.5625 22.578125 L 2.496094 22.636719 L 2.464844 22.664062 C 2.441406 22.683594 2.417969 22.703125 2.394531 22.722656 C 2.261719 22.832031 2.1875 22.949219 2.160156 23.121094 C 2.148438 23.242188 2.136719 23.398438 2.203125 23.5 L 2.230469 23.53125 C 2.335938 23.507812 2.402344 23.472656 2.484375 23.402344 L 2.515625 23.378906 C 2.621094 23.296875 2.699219 23.21875 2.714844 23.082031 C 2.722656 22.996094 2.722656 22.910156 2.71875 22.828125 L 2.71875 22.757812 C 2.71875 22.617188 2.71875 22.617188 2.699219 22.484375 C 2.652344 22.484375 2.597656 22.546875 2.5625 22.578125 Z M 2.960938 22.519531 C 2.878906 22.601562 2.902344 22.71875 2.902344 22.824219 L 2.898438 22.878906 C 2.898438 22.976562 2.902344 23.066406 2.941406 23.15625 C 2.992188 23.203125 2.992188 23.203125 3.050781 23.238281 C 3.167969 23.308594 3.265625 23.394531 3.363281 23.488281 C 3.410156 23.535156 3.410156 23.535156 3.464844 23.570312 C 3.546875 23.277344 3.5625 23.082031 3.410156 22.8125 C 3.324219 22.699219 3.167969 22.570312 3.035156 22.519531 Z M 3.632812 23.585938 C 3.585938 23.683594 3.582031 23.785156 3.605469 23.890625 C 3.621094 23.929688 3.621094 23.929688 3.652344 23.980469 C 3.703125 24 3.703125 24 3.746094 24 C 3.804688 23.914062 3.796875 23.835938 3.785156 23.738281 C 3.761719 23.679688 3.734375 23.632812 3.691406 23.585938 Z M 4.214844 23.90625 C 4.164062 23.949219 4.152344 23.976562 4.144531 24.042969 C 4.136719 24.113281 4.140625 24.164062 4.179688 24.226562 C 4.210938 24.265625 4.210938 24.265625 4.261719 24.265625 C 4.3125 24.265625 4.3125 24.265625 4.347656 24.226562 C 4.359375 24.109375 4.34375 24.019531 4.273438 23.925781 Z M 4.214844 23.90625 "/>
<path style=" stroke:none;fill-rule:nonzero;fill:rgb(0%,0%,0%);fill-opacity:1;" d="M 19.273438 12.738281 L 19.332031 12.746094 C 19.394531 12.75 19.457031 12.757812 19.519531 12.765625 C 19.652344 12.777344 19.789062 12.792969 19.921875 12.804688 C 20.039062 12.820312 20.15625 12.832031 20.273438 12.84375 C 20.363281 12.851562 20.453125 12.859375 20.542969 12.871094 C 20.585938 12.875 20.628906 12.878906 20.667969 12.882812 C 20.730469 12.890625 20.789062 12.894531 20.851562 12.902344 L 20.902344 12.90625 C 21.023438 12.921875 21.109375 12.949219 21.207031 13.027344 C 21.257812 13.09375 21.253906 13.125 21.246094 13.207031 C 21.226562 13.269531 21.226562 13.269531 21.203125 13.335938 L 21.1875 13.375 C 21.171875 13.414062 21.15625 13.453125 21.140625 13.492188 L 21.109375 13.574219 C 21.085938 13.632812 21.0625 13.691406 21.039062 13.75 C 21.007812 13.824219 20.980469 13.898438 20.949219 13.972656 C 20.929688 14.027344 20.90625 14.085938 20.882812 14.144531 C 20.871094 14.171875 20.859375 14.199219 20.847656 14.226562 C 20.75 14.484375 20.75 14.484375 20.628906 14.542969 L 20.589844 14.558594 C 20.566406 14.570312 20.539062 14.585938 20.515625 14.597656 C 20.488281 14.613281 20.464844 14.625 20.4375 14.640625 L 20.394531 14.660156 C 20.351562 14.683594 20.308594 14.707031 20.265625 14.730469 C 20.222656 14.753906 20.179688 14.777344 20.132812 14.796875 C 20.105469 14.8125 20.078125 14.828125 20.054688 14.839844 C 20 14.871094 19.949219 14.898438 19.898438 14.933594 C 19.824219 14.945312 19.757812 14.949219 19.691406 14.914062 C 19.636719 14.863281 19.609375 14.816406 19.597656 14.746094 C 19.605469 14.695312 19.609375 14.675781 19.644531 14.640625 C 19.769531 14.5625 19.898438 14.492188 20.03125 14.425781 C 20.074219 14.402344 20.117188 14.378906 20.160156 14.355469 L 20.214844 14.324219 L 20.273438 14.296875 L 20.339844 14.265625 C 20.4375 14.210938 20.460938 14.101562 20.496094 14.003906 L 20.519531 13.9375 C 20.546875 13.871094 20.570312 13.800781 20.597656 13.734375 C 20.613281 13.6875 20.632812 13.640625 20.648438 13.59375 C 20.679688 13.511719 20.710938 13.425781 20.742188 13.34375 L 20.761719 13.292969 C 20.777344 13.25 20.785156 13.210938 20.796875 13.171875 L 20.722656 13.171875 C 20.589844 13.171875 20.453125 13.15625 20.320312 13.144531 C 20.273438 13.136719 20.222656 13.132812 20.175781 13.128906 C 20.074219 13.117188 19.96875 13.105469 19.867188 13.097656 C 19.75 13.082031 19.628906 13.070312 19.511719 13.058594 C 19.464844 13.054688 19.417969 13.050781 19.367188 13.042969 C 19.074219 13.011719 19.074219 13.011719 18.789062 13.082031 L 18.742188 13.101562 C 18.691406 13.121094 18.644531 13.140625 18.59375 13.160156 C 18.542969 13.183594 18.496094 13.203125 18.445312 13.222656 C 18.414062 13.234375 18.382812 13.246094 18.355469 13.257812 C 18.257812 13.296875 18.183594 13.308594 18.078125 13.300781 C 18.042969 13.265625 18.054688 13.21875 18.054688 13.171875 C 18.0625 13.121094 18.078125 13.109375 18.117188 13.078125 C 18.15625 13.054688 18.15625 13.054688 18.207031 13.03125 L 18.257812 13.007812 L 18.492188 12.898438 C 18.542969 12.875 18.589844 12.847656 18.640625 12.824219 L 18.683594 12.804688 C 18.707031 12.789062 18.730469 12.777344 18.757812 12.765625 C 18.914062 12.683594 19.105469 12.722656 19.273438 12.738281 Z M 22.707031 15.382812 C 22.769531 15.441406 22.8125 15.515625 22.855469 15.585938 L 22.90625 15.664062 C 22.941406 15.722656 22.980469 15.78125 23.015625 15.839844 C 23.089844 15.957031 23.164062 16.070312 23.238281 16.1875 C 23.28125 16.25 23.320312 16.308594 23.363281 16.371094 C 23.417969 16.457031 23.472656 16.542969 23.527344 16.628906 L 23.558594 16.675781 C 23.613281 16.757812 23.667969 16.84375 23.722656 16.925781 C 23.738281 16.953125 23.753906 16.976562 23.773438 17.003906 C 23.820312 17.078125 23.867188 17.148438 23.917969 17.222656 L 23.953125 17.273438 C 23.972656 17.304688 23.996094 17.335938 24.015625 17.367188 C 24.082031 17.46875 24.109375 17.53125 24.09375 17.648438 C 24.066406 17.703125 24.03125 17.730469 23.980469 17.761719 C 23.921875 17.777344 23.871094 17.777344 23.8125 17.761719 C 23.757812 17.714844 23.726562 17.65625 23.691406 17.59375 L 23.625 17.488281 L 23.589844 17.429688 C 23.527344 17.328125 23.460938 17.230469 23.394531 17.132812 C 23.363281 17.078125 23.328125 17.027344 23.292969 16.972656 L 23.257812 16.917969 L 23.230469 16.878906 C 23.167969 16.902344 23.113281 16.929688 23.058594 16.96875 L 23.011719 16.996094 L 22.964844 17.027344 L 22.871094 17.085938 C 22.820312 17.117188 22.769531 17.148438 22.722656 17.183594 C 22.65625 17.226562 22.601562 17.253906 22.527344 17.273438 C 22.429688 17.246094 22.382812 17.1875 22.332031 17.105469 C 22.3125 17.039062 22.3125 17.039062 22.332031 16.972656 C 22.371094 16.941406 22.371094 16.941406 22.421875 16.90625 L 22.480469 16.863281 C 22.574219 16.800781 22.671875 16.738281 22.765625 16.675781 L 22.828125 16.636719 C 22.875 16.605469 22.921875 16.574219 22.96875 16.542969 C 22.953125 16.464844 22.914062 16.40625 22.875 16.339844 L 22.847656 16.300781 C 22.761719 16.160156 22.667969 16.023438 22.578125 15.882812 L 22.542969 15.832031 L 22.511719 15.78125 L 22.484375 15.738281 L 22.453125 15.691406 C 22.421875 15.636719 22.414062 15.59375 22.414062 15.53125 C 22.433594 15.464844 22.480469 15.4375 22.535156 15.402344 C 22.601562 15.367188 22.632812 15.359375 22.707031 15.382812 Z M 22.707031 15.382812 "/>
<path style=" stroke:none;fill-rule:nonzero;fill:rgb(83.921569%,73.333333%,28.627451%);fill-opacity:1;" d="M 19.03125 12.800781 L 19.105469 12.808594 C 19.132812 12.808594 19.15625 12.8125 19.183594 12.816406 L 19.230469 12.820312 C 19.351562 12.832031 19.476562 12.84375 19.601562 12.855469 L 19.660156 12.863281 C 19.761719 12.871094 19.863281 12.882812 19.96875 12.894531 C 20.050781 12.902344 20.136719 12.910156 20.222656 12.917969 C 20.324219 12.929688 20.425781 12.941406 20.53125 12.949219 C 20.570312 12.953125 20.609375 12.957031 20.648438 12.960938 C 20.699219 12.96875 20.753906 12.972656 20.808594 12.980469 L 20.859375 12.984375 C 20.976562 12.996094 21.058594 13.019531 21.140625 13.109375 L 21.171875 13.152344 C 21.113281 13.3125 21.054688 13.472656 20.996094 13.632812 C 20.964844 13.707031 20.9375 13.78125 20.914062 13.855469 C 20.710938 14.425781 20.710938 14.425781 20.457031 14.550781 C 20.402344 14.574219 20.351562 14.597656 20.300781 14.613281 C 20.234375 14.636719 20.183594 14.667969 20.125 14.703125 L 20.074219 14.734375 C 20.039062 14.75 20.007812 14.769531 19.972656 14.789062 L 19.921875 14.816406 L 19.878906 14.84375 C 19.832031 14.859375 19.8125 14.859375 19.765625 14.839844 C 19.722656 14.800781 19.722656 14.800781 19.691406 14.761719 C 19.714844 14.691406 19.734375 14.6875 19.796875 14.65625 L 19.914062 14.59375 C 19.976562 14.5625 20.035156 14.53125 20.09375 14.5 C 20.140625 14.472656 20.1875 14.453125 20.238281 14.433594 C 20.410156 14.359375 20.492188 14.269531 20.570312 14.097656 C 20.613281 13.988281 20.652344 13.882812 20.691406 13.773438 C 20.710938 13.710938 20.734375 13.648438 20.757812 13.585938 C 20.84375 13.363281 20.84375 13.363281 20.910156 13.132812 C 20.703125 13.097656 20.492188 13.078125 20.285156 13.054688 L 20.175781 13.042969 C 20.101562 13.035156 20.023438 13.027344 19.949219 13.019531 C 19.851562 13.011719 19.753906 13 19.65625 12.988281 C 19.582031 12.980469 19.507812 12.972656 19.433594 12.964844 C 19.398438 12.964844 19.363281 12.960938 19.328125 12.957031 C 19.277344 12.949219 19.226562 12.945312 19.175781 12.941406 L 19.132812 12.933594 C 19.019531 12.925781 18.929688 12.933594 18.824219 12.972656 L 18.78125 12.992188 L 18.734375 13.007812 L 18.6875 13.027344 C 18.636719 13.046875 18.585938 13.066406 18.535156 13.085938 C 18.484375 13.109375 18.433594 13.128906 18.382812 13.148438 C 18.347656 13.160156 18.316406 13.171875 18.285156 13.183594 C 18.175781 13.226562 18.175781 13.226562 18.136719 13.226562 C 18.164062 13.15625 18.191406 13.136719 18.261719 13.105469 L 18.3125 13.078125 L 18.371094 13.054688 L 18.546875 12.972656 C 18.597656 12.949219 18.644531 12.925781 18.695312 12.898438 L 18.734375 12.878906 C 18.761719 12.863281 18.785156 12.851562 18.808594 12.835938 C 18.886719 12.796875 18.945312 12.792969 19.03125 12.800781 Z M 22.632812 15.457031 C 22.6875 15.507812 22.730469 15.558594 22.769531 15.625 L 22.804688 15.679688 L 22.84375 15.738281 C 22.867188 15.78125 22.894531 15.824219 22.921875 15.867188 L 22.945312 15.902344 C 23.019531 16.015625 23.09375 16.132812 23.167969 16.25 L 23.25 16.371094 L 23.289062 16.429688 C 23.398438 16.601562 23.511719 16.773438 23.621094 16.941406 L 23.648438 16.980469 C 23.664062 17.007812 23.679688 17.035156 23.695312 17.058594 C 23.746094 17.132812 23.792969 17.207031 23.84375 17.28125 L 23.878906 17.332031 C 23.902344 17.367188 23.921875 17.398438 23.945312 17.429688 L 23.976562 17.476562 L 24.003906 17.515625 C 24.019531 17.554688 24.019531 17.554688 24.003906 17.59375 C 23.980469 17.632812 23.957031 17.660156 23.925781 17.6875 L 23.867188 17.6875 C 23.84375 17.660156 23.84375 17.660156 23.820312 17.621094 L 23.792969 17.578125 L 23.761719 17.527344 C 23.742188 17.496094 23.71875 17.460938 23.699219 17.425781 L 23.664062 17.371094 C 23.621094 17.308594 23.582031 17.246094 23.539062 17.179688 L 23.519531 17.148438 C 23.488281 17.105469 23.460938 17.0625 23.433594 17.019531 C 23.410156 16.988281 23.390625 16.957031 23.371094 16.925781 L 23.335938 16.875 C 23.308594 16.828125 23.289062 16.78125 23.269531 16.730469 L 23.226562 16.753906 L 22.539062 17.179688 C 22.429688 17.09375 22.429688 17.09375 22.40625 17.03125 L 23.101562 16.5625 C 23.074219 16.5 23.054688 16.453125 23.019531 16.398438 L 22.996094 16.355469 L 22.964844 16.3125 L 22.9375 16.265625 C 22.84375 16.117188 22.746094 15.972656 22.652344 15.824219 L 22.617188 15.773438 L 22.585938 15.726562 L 22.558594 15.679688 L 22.523438 15.632812 L 22.5 15.585938 C 22.527344 15.511719 22.566406 15.496094 22.632812 15.457031 Z M 22.632812 15.457031 "/>
<path style=" stroke:none;fill-rule:nonzero;fill:rgb(0%,0%,0%);fill-opacity:1;" d="M 25.769531 18.71875 C 25.839844 18.738281 25.847656 18.738281 25.882812 18.796875 C 25.898438 18.824219 25.914062 18.855469 25.929688 18.886719 C 25.949219 18.917969 25.964844 18.949219 25.984375 18.984375 C 26.007812 19.03125 26.035156 19.078125 26.0625 19.128906 L 26.089844 19.078125 L 26.125 19.007812 L 26.144531 18.972656 C 26.191406 18.886719 26.191406 18.886719 26.210938 18.867188 C 26.324219 18.859375 26.324219 18.859375 26.378906 18.886719 C 26.410156 18.945312 26.40625 19.003906 26.398438 19.074219 C 26.363281 19.171875 26.320312 19.261719 26.277344 19.355469 C 26.195312 19.535156 26.214844 19.625 26.269531 19.8125 C 26.296875 19.910156 26.320312 20 26.304688 20.101562 C 26.273438 20.148438 26.273438 20.148438 26.230469 20.179688 C 26.164062 20.1875 26.164062 20.1875 26.097656 20.179688 C 26.054688 20.117188 26.027344 20.046875 25.996094 19.976562 L 25.972656 19.914062 L 25.945312 19.84375 L 25.933594 19.808594 C 25.910156 19.746094 25.886719 19.683594 25.863281 19.621094 C 25.835938 19.558594 25.8125 19.496094 25.789062 19.433594 C 25.769531 19.382812 25.75 19.332031 25.730469 19.285156 C 25.71875 19.25 25.703125 19.214844 25.691406 19.179688 C 25.644531 19.058594 25.617188 18.960938 25.628906 18.828125 C 25.667969 18.753906 25.6875 18.738281 25.769531 18.71875 Z M 20.214844 16.957031 C 20.261719 16.984375 20.261719 16.984375 20.296875 17.019531 L 20.335938 17.058594 C 20.367188 17.113281 20.378906 17.15625 20.375 17.21875 C 20.355469 17.292969 20.285156 17.332031 20.222656 17.375 L 20.179688 17.40625 C 20.136719 17.4375 20.089844 17.46875 20.046875 17.5 C 20.023438 17.515625 20.003906 17.53125 19.980469 17.546875 C 19.9375 17.578125 19.898438 17.605469 19.855469 17.636719 C 19.765625 17.699219 19.679688 17.761719 19.59375 17.824219 L 19.546875 17.859375 C 19.46875 17.917969 19.46875 17.917969 19.390625 17.980469 C 19.332031 18.019531 19.292969 18.015625 19.222656 18.003906 C 19.148438 17.949219 19.117188 17.894531 19.09375 17.808594 C 19.117188 17.707031 19.179688 17.671875 19.261719 17.609375 C 19.28125 17.59375 19.300781 17.578125 19.320312 17.5625 C 19.386719 17.511719 19.453125 17.457031 19.523438 17.40625 C 19.554688 17.378906 19.585938 17.355469 19.617188 17.328125 C 19.640625 17.3125 19.660156 17.296875 19.683594 17.28125 C 19.746094 17.230469 19.804688 17.183594 19.863281 17.132812 L 19.902344 17.097656 C 19.929688 17.074219 19.953125 17.054688 19.980469 17.03125 C 20.058594 16.964844 20.109375 16.9375 20.214844 16.957031 Z M 20.214844 16.957031 "/>
<path style=" stroke:none;fill-rule:nonzero;fill:rgb(0.392157%,0%,0%);fill-opacity:1;" d="M 20.664062 17.574219 C 20.714844 17.625 20.71875 17.664062 20.730469 17.734375 C 20.71875 17.8125 20.695312 17.832031 20.644531 17.890625 L 20.628906 17.964844 C 20.589844 18.070312 20.492188 18.113281 20.398438 18.171875 C 20.335938 18.210938 20.277344 18.253906 20.214844 18.296875 C 20.191406 18.3125 20.164062 18.332031 20.140625 18.347656 C 20.09375 18.378906 20.046875 18.410156 20 18.445312 L 19.941406 18.484375 L 19.890625 18.523438 C 19.828125 18.554688 19.78125 18.554688 19.710938 18.546875 C 19.65625 18.519531 19.628906 18.484375 19.597656 18.4375 C 19.574219 18.347656 19.574219 18.347656 19.597656 18.285156 C 19.648438 18.230469 19.707031 18.1875 19.769531 18.140625 C 19.804688 18.113281 19.84375 18.085938 19.882812 18.058594 C 19.941406 18.011719 20.003906 17.96875 20.0625 17.925781 C 20.128906 17.875 20.195312 17.828125 20.261719 17.777344 L 20.3125 17.734375 C 20.34375 17.710938 20.375 17.6875 20.40625 17.660156 C 20.492188 17.59375 20.550781 17.554688 20.664062 17.574219 Z M 20.664062 17.574219 "/>
<path style=" stroke:none;fill-rule:nonzero;fill:rgb(0%,0%,0%);fill-opacity:1;" d="M 18.089844 14.582031 C 18.164062 14.597656 18.195312 14.613281 18.246094 14.671875 C 18.285156 14.734375 18.285156 14.800781 18.265625 14.875 C 18.230469 14.925781 18.1875 14.960938 18.140625 14.996094 L 18.101562 15.027344 C 18.0625 15.058594 18.023438 15.089844 17.984375 15.121094 C 17.949219 15.148438 17.917969 15.175781 17.882812 15.203125 L 17.832031 15.246094 C 17.746094 15.316406 17.664062 15.386719 17.582031 15.457031 L 17.550781 15.484375 C 17.527344 15.503906 17.503906 15.523438 17.484375 15.542969 L 17.449219 15.574219 L 17.417969 15.601562 C 17.378906 15.628906 17.355469 15.636719 17.308594 15.640625 C 17.238281 15.625 17.238281 15.625 17.179688 15.578125 C 17.136719 15.5 17.128906 15.46875 17.144531 15.382812 C 17.175781 15.332031 17.21875 15.296875 17.265625 15.261719 L 17.300781 15.226562 C 17.335938 15.199219 17.371094 15.167969 17.40625 15.136719 C 17.433594 15.113281 17.457031 15.089844 17.484375 15.066406 L 17.519531 15.039062 C 17.5625 15 17.605469 14.960938 17.648438 14.921875 C 17.71875 14.859375 17.785156 14.796875 17.855469 14.738281 C 17.878906 14.71875 17.902344 14.695312 17.925781 14.675781 C 17.980469 14.621094 18.011719 14.597656 18.089844 14.582031 Z M 18.460938 15.019531 C 18.527344 15.019531 18.546875 15.023438 18.605469 15.0625 C 18.652344 15.136719 18.65625 15.167969 18.640625 15.25 C 18.605469 15.296875 18.558594 15.332031 18.507812 15.367188 L 18.46875 15.398438 C 18.4375 15.421875 18.410156 15.441406 18.382812 15.464844 C 18.324219 15.507812 18.269531 15.550781 18.210938 15.597656 L 18.179688 15.621094 C 18.078125 15.703125 17.976562 15.78125 17.878906 15.863281 L 17.839844 15.894531 L 17.808594 15.921875 C 17.757812 15.960938 17.726562 15.980469 17.660156 15.988281 C 17.59375 15.980469 17.59375 15.980469 17.546875 15.941406 C 17.511719 15.875 17.507812 15.832031 17.515625 15.757812 C 17.554688 15.707031 17.554688 15.707031 17.609375 15.664062 L 17.636719 15.640625 C 17.664062 15.617188 17.695312 15.59375 17.722656 15.570312 L 17.773438 15.527344 C 17.808594 15.5 17.84375 15.472656 17.875 15.445312 C 17.933594 15.394531 17.992188 15.347656 18.050781 15.296875 C 18.144531 15.21875 18.234375 15.144531 18.328125 15.070312 C 18.378906 15.03125 18.390625 15.023438 18.460938 15.019531 Z M 25.183594 19.511719 L 25.222656 19.515625 L 25.292969 19.523438 C 25.34375 19.609375 25.367188 19.683594 25.347656 19.785156 C 25.316406 19.828125 25.292969 19.859375 25.253906 19.898438 C 25.234375 19.917969 25.214844 19.9375 25.191406 19.960938 L 25.160156 19.992188 C 25.097656 20.054688 25.035156 20.121094 24.976562 20.1875 C 24.933594 20.234375 24.886719 20.28125 24.84375 20.328125 L 24.8125 20.359375 C 24.738281 20.4375 24.738281 20.4375 24.664062 20.453125 C 24.597656 20.441406 24.597656 20.441406 24.554688 20.414062 C 24.515625 20.351562 24.507812 20.3125 24.511719 20.242188 C 24.539062 20.148438 24.621094 20.089844 24.691406 20.027344 C 24.714844 20.003906 24.734375 19.980469 24.753906 19.957031 C 24.824219 19.878906 24.894531 19.800781 24.96875 19.722656 L 24.996094 19.695312 L 25.023438 19.664062 C 25.050781 19.632812 25.074219 19.601562 25.097656 19.570312 C 25.144531 19.523438 25.144531 19.523438 25.183594 19.511719 Z M 25.515625 19.992188 C 25.554688 20.070312 25.566406 20.128906 25.554688 20.214844 C 25.527344 20.269531 25.488281 20.316406 25.449219 20.363281 L 25.414062 20.40625 C 25.382812 20.449219 25.347656 20.492188 25.3125 20.535156 C 25.289062 20.5625 25.265625 20.589844 25.242188 20.617188 C 25.195312 20.679688 25.144531 20.742188 25.09375 20.804688 C 25.070312 20.832031 25.050781 20.859375 25.027344 20.886719 C 24.992188 20.925781 24.992188 20.925781 24.917969 20.9375 C 24.851562 20.933594 24.800781 20.921875 24.75 20.871094 C 24.742188 20.800781 24.742188 20.753906 24.777344 20.691406 L 24.820312 20.644531 L 24.863281 20.59375 L 24.890625 20.566406 C 24.929688 20.519531 24.96875 20.476562 25.007812 20.429688 C 25.03125 20.40625 25.050781 20.382812 25.070312 20.355469 C 25.148438 20.269531 25.222656 20.179688 25.296875 20.085938 C 25.371094 19.996094 25.394531 19.984375 25.515625 19.992188 Z M 25.515625 19.992188 "/>
<path style=" stroke:none;fill-rule:nonzero;fill:rgb(83.921569%,73.333333%,28.627451%);fill-opacity:1;" d="M 20.140625 17.03125 C 20.164062 17.046875 20.183594 17.066406 20.207031 17.082031 L 20.242188 17.109375 C 20.273438 17.144531 20.273438 17.144531 20.273438 17.21875 C 20.234375 17.25 20.203125 17.273438 20.164062 17.300781 C 20.136719 17.316406 20.113281 17.332031 20.089844 17.351562 L 20.050781 17.375 C 19.976562 17.425781 19.90625 17.480469 19.835938 17.53125 L 19.746094 17.597656 L 19.699219 17.632812 C 19.617188 17.691406 19.535156 17.753906 19.453125 17.816406 L 19.363281 17.882812 L 19.296875 17.929688 C 19.25 17.886719 19.25 17.886719 19.203125 17.835938 L 19.203125 17.78125 C 19.246094 17.742188 19.289062 17.703125 19.332031 17.667969 L 19.375 17.636719 C 19.480469 17.550781 19.589844 17.46875 19.699219 17.386719 C 19.851562 17.273438 19.996094 17.152344 20.140625 17.03125 Z M 25.761719 18.808594 C 25.8125 18.855469 25.839844 18.90625 25.871094 18.96875 L 25.933594 19.09375 L 25.964844 19.160156 C 25.992188 19.210938 26.015625 19.265625 26.042969 19.316406 C 26.085938 19.261719 26.125 19.210938 26.15625 19.152344 L 26.195312 19.074219 L 26.21875 19.035156 C 26.234375 19.003906 26.25 18.972656 26.265625 18.941406 L 26.324219 18.980469 C 26.296875 19.066406 26.265625 19.152344 26.226562 19.238281 L 26.207031 19.28125 C 26.195312 19.3125 26.179688 19.34375 26.164062 19.371094 C 26.085938 19.550781 26.144531 19.703125 26.199219 19.882812 L 26.214844 19.929688 L 26.226562 19.96875 C 26.230469 20.019531 26.21875 20.042969 26.191406 20.085938 L 26.136719 20.085938 C 26.082031 19.941406 26.027344 19.800781 25.976562 19.65625 C 25.949219 19.589844 25.925781 19.523438 25.902344 19.457031 C 25.878906 19.394531 25.851562 19.332031 25.828125 19.265625 C 25.820312 19.242188 25.8125 19.21875 25.800781 19.195312 C 25.789062 19.160156 25.777344 19.125 25.761719 19.089844 L 25.742188 19.03125 C 25.726562 18.984375 25.710938 18.9375 25.703125 18.886719 C 25.730469 18.84375 25.730469 18.84375 25.761719 18.808594 Z M 20.589844 17.648438 L 20.644531 17.722656 L 20.589844 17.796875 C 20.566406 17.839844 20.566406 17.839844 20.558594 17.898438 C 20.527344 17.984375 20.484375 18.011719 20.410156 18.054688 C 20.382812 18.070312 20.359375 18.089844 20.332031 18.105469 L 20.292969 18.128906 C 20.226562 18.171875 20.160156 18.21875 20.097656 18.261719 C 19.992188 18.332031 19.890625 18.402344 19.785156 18.472656 L 19.671875 18.378906 C 19.699219 18.320312 19.722656 18.289062 19.777344 18.25 L 19.820312 18.21875 L 19.867188 18.1875 C 19.898438 18.164062 19.929688 18.140625 19.960938 18.117188 L 20.011719 18.082031 C 20.117188 18.003906 20.222656 17.921875 20.324219 17.84375 C 20.414062 17.777344 20.5 17.710938 20.589844 17.648438 Z M 18.078125 14.667969 L 18.191406 14.761719 C 18.1875 14.824219 18.171875 14.839844 18.125 14.886719 C 18.105469 14.902344 18.085938 14.917969 18.0625 14.9375 L 18.03125 14.964844 C 17.996094 14.992188 17.964844 15.015625 17.929688 15.042969 L 17.828125 15.128906 L 17.777344 15.167969 C 17.683594 15.246094 17.585938 15.328125 17.492188 15.410156 C 17.4375 15.457031 17.382812 15.503906 17.332031 15.550781 C 17.265625 15.523438 17.242188 15.503906 17.21875 15.4375 C 17.460938 15.214844 17.460938 15.214844 17.574219 15.113281 C 17.617188 15.074219 17.660156 15.035156 17.703125 14.996094 C 17.828125 14.886719 17.953125 14.777344 18.078125 14.667969 Z M 18.4375 15.101562 C 18.472656 15.105469 18.472656 15.105469 18.511719 15.121094 C 18.53125 15.144531 18.546875 15.167969 18.566406 15.195312 L 18.519531 15.230469 C 18.398438 15.328125 18.273438 15.425781 18.15625 15.523438 C 18.058594 15.601562 17.960938 15.679688 17.859375 15.757812 C 17.851562 15.765625 17.839844 15.777344 17.828125 15.785156 C 17.769531 15.828125 17.710938 15.871094 17.648438 15.90625 L 17.59375 15.8125 C 17.703125 15.710938 17.816406 15.613281 17.929688 15.519531 C 17.992188 15.472656 18.050781 15.421875 18.109375 15.371094 C 18.199219 15.292969 18.289062 15.21875 18.382812 15.148438 C 18.414062 15.121094 18.414062 15.121094 18.4375 15.101562 Z M 25.199219 19.597656 L 25.238281 19.597656 C 25.261719 19.65625 25.261719 19.65625 25.273438 19.726562 C 25.246094 19.773438 25.21875 19.804688 25.179688 19.839844 C 25.160156 19.859375 25.140625 19.882812 25.117188 19.902344 L 25.085938 19.9375 C 25.023438 20 24.960938 20.066406 24.902344 20.132812 C 24.824219 20.214844 24.746094 20.292969 24.65625 20.367188 C 24.625 20.34375 24.625 20.34375 24.597656 20.308594 C 24.605469 20.242188 24.636719 20.210938 24.6875 20.164062 C 24.734375 20.117188 24.785156 20.066406 24.828125 20.015625 C 24.898438 19.933594 24.972656 19.855469 25.042969 19.777344 C 25.085938 19.730469 25.128906 19.6875 25.167969 19.636719 Z M 25.441406 20.066406 C 25.464844 20.097656 25.464844 20.097656 25.480469 20.140625 C 25.445312 20.21875 25.386719 20.285156 25.332031 20.355469 L 25.304688 20.386719 C 25.226562 20.488281 25.148438 20.585938 25.066406 20.683594 C 25.023438 20.738281 24.980469 20.796875 24.9375 20.851562 L 24.824219 20.816406 C 24.871094 20.730469 24.929688 20.660156 24.992188 20.589844 C 25.015625 20.566406 25.035156 20.539062 25.058594 20.515625 L 25.09375 20.476562 C 25.140625 20.421875 25.1875 20.367188 25.234375 20.308594 C 25.304688 20.226562 25.375 20.144531 25.441406 20.066406 Z M 25.441406 20.066406 "/>
<path style=" stroke:none;fill-rule:nonzero;fill:rgb(52.156863%,26.666667%,9.803922%);fill-opacity:1;" d="M 27.820312 12.195312 L 27.859375 12.214844 C 27.839844 12.238281 27.816406 12.261719 27.796875 12.285156 L 27.761719 12.328125 C 27.703125 12.394531 27.703125 12.394531 27.671875 12.421875 L 27.632812 12.421875 L 27.597656 12.496094 L 27.558594 12.476562 C 27.59375 12.441406 27.625 12.40625 27.660156 12.367188 L 27.6875 12.335938 C 27.730469 12.289062 27.773438 12.242188 27.820312 12.195312 Z M 27.820312 12.195312 "/>
<path style=" stroke:none;fill-rule:nonzero;fill:rgb(44.705882%,22.745098%,7.843137%);fill-opacity:1;" d="M 5.191406 17.515625 L 5.226562 17.535156 L 5.226562 17.574219 L 5.265625 17.574219 L 5.246094 17.628906 L 5.246094 17.59375 C 5.199219 17.597656 5.199219 17.597656 5.152344 17.609375 C 5.132812 17.644531 5.132812 17.644531 5.113281 17.6875 C 5.089844 17.710938 5.066406 17.738281 5.039062 17.761719 L 5.003906 17.742188 L 5.039062 17.703125 L 5.132812 17.601562 C 5.171875 17.558594 5.171875 17.558594 5.191406 17.515625 Z M 5.191406 17.515625 "/>
<path style=" stroke:none;fill-rule:nonzero;fill:rgb(30.588235%,14.509804%,3.921569%);fill-opacity:1;" d="M 10.679688 11.390625 L 10.699219 11.390625 C 10.699219 11.417969 10.699219 11.445312 10.699219 11.472656 L 10.703125 11.515625 C 10.699219 11.558594 10.699219 11.558594 10.660156 11.617188 L 10.566406 11.578125 L 10.601562 11.570312 C 10.664062 11.523438 10.664062 11.464844 10.679688 11.390625 Z M 10.679688 11.390625 "/>
<path style=" stroke:none;fill-rule:nonzero;fill:rgb(54.509804%,28.235294%,10.196078%);fill-opacity:1;" d="M 12.140625 10.003906 L 12.179688 10.023438 C 12.160156 10.046875 12.144531 10.066406 12.125 10.085938 L 12.09375 10.125 C 12.066406 10.15625 12.066406 10.15625 12.007812 10.171875 L 12.027344 10.117188 L 12.066406 10.117188 L 12.066406 10.078125 L 12.101562 10.078125 Z M 12.140625 10.003906 "/>
<path style=" stroke:none;fill-rule:nonzero;fill:rgb(42.352941%,21.176471%,7.058824%);fill-opacity:1;" d="M 9.066406 15.324219 L 9.21875 15.324219 L 9.21875 15.34375 L 9.167969 15.359375 C 9.117188 15.378906 9.074219 15.394531 9.03125 15.417969 Z M 9.066406 15.324219 "/>
</g>
</svg>
